<svg xmlns="http://www.w3.org/2000/svg" width="1600" height="1200" viewBox="0 0 1600 1200" preserveAspectRatio="xMidYMid meet">
  <defs>
    <linearGradient id="g" x1="0" x2="1">
      <stop offset="0%" stop-color="#7FC97F" />
      <stop offset="100%" stop-color="#2E8B57" />
    </linearGradient>
  </defs>
  <rect width="100%" height="100%" fill="#F6FFF6" />
  <g transform="translate(400,200) scale(1.2)">
    <path d="M400 50 C 300 80 180 140 120 260 C 60 380 120 520 220 600 C 320 680 420 700 520 660 C 620 620 720 520 760 420 C 800 320 760 200 680 140 C 600 80 500 30 400 50 Z" fill="url(#g)" stroke="#2D6A4F" stroke-width="8"/>
    <circle cx="280" cy="380" r="28" fill="#6B2E2E" />
    <circle cx="520" cy="260" r="18" fill="#6B2E2E" />
    <rect x="600" y="80" width="40" height="160" rx="20" fill="#8FBF9C" transform="rotate(-20 620 160)" />
  </g>
  <text x="60" y="1120" font-family="sans-serif" font-size="36" fill="#2D6A4F">Local placeholder — diseased leaf</text>
</svg>
