<svg xmlns="http://www.w3.org/2000/svg" width="1600" height="1200" viewBox="0 0 1600 1200" preserveAspectRatio="xMidYMid meet">
  <defs>
    <radialGradient id="mg" cx="50%" cy="40%">
      <stop offset="0%" stop-color="#E6FFF2" />
      <stop offset="100%" stop-color="#C9F7E0" />
    </radialGradient>
  </defs>
  <rect width="100%" height="100%" fill="url(#mg)" />
  <g transform="translate(300,180) scale(1.1)">
    <rect x="80" y="80" width="960" height="960" rx="40" fill="#fff" stroke="#C2F0D0" stroke-width="6" />
    <path d="M280 300 C 360 240 520 220 680 300 C 840 380 960 560 820 700 C 680 840 520 860 380 760 C 240 660 200 420 280 300 Z" fill="#7FC97F" stroke="#3E8C4A" stroke-width="10"/>
    <g stroke="#2E6B3D" stroke-width="6" fill="none" stroke-linecap="round">
      <path d="M420 340 C 520 320 620 330 720 380"/>
      <path d="M460 420 C 560 400 660 420 740 480"/>
      <path d="M480 520 C 580 520 680 540 760 620"/>
    </g>
  </g>
  <text x="60" y="1120" font-family="sans-serif" font-size="36" fill="#2E6B3D">Local placeholder — leaf macro</text>
</svg>
